<?xml version="1.0" encoding="UTF-8" standalone="no"?>
<!-- Created with Inkscape (http://www.inkscape.org/) -->
<svg xmlns:rdf="http://www.w3.org/1999/02/22-rdf-syntax-ns#" xmlns="http://www.w3.org/2000/svg" xmlns:cc="http://web.resource.org/cc/" xmlns:dc="http://purl.org/dc/elements/1.1/" xmlns:svg="http://www.w3.org/2000/svg" xmlns:inkscape="http://www.inkscape.org/namespaces/inkscape" xmlns:sodipodi="http://sodipodi.sourceforge.net/DTD/sodipodi-0.dtd" xmlns:ns1="http://sozi.baierouge.fr" xmlns:xlink="http://www.w3.org/1999/xlink" id="svg2" viewBox="0 0 256 256" version="1.0" inkscape:version="0.91 r13725">
  <g id="layer1">
    <rect id="rect2380" style="stroke:#000000;fill:#ffffff" height="16" width="32" y="0" x="0"/>
    <rect id="rect3224" style="stroke:#000000;fill:#ffffff" height="16" width="32" y="0" x="32"/>
    <rect id="rect3226" style="stroke:#000000;fill:#ffffff" height="16" width="32" y="0" x="64"/>
    <rect id="rect3228" style="stroke:#000000;fill:#ffffff" height="16" width="32" y="0" x="96"/>
    <rect id="rect3230" style="stroke:#000000;fill:#ffffff" height="16" width="32" y="0" x="128"/>
    <rect id="rect3232" style="stroke:#000000;fill:#ffffff" height="16" width="32" y="0" x="160"/>
    <rect id="rect3234" style="stroke:#000000;fill:#ffffff" height="16" width="32" y="0" x="192"/>
    <rect id="rect3236" style="stroke:#000000;fill:#ffffff" height="16" width="32" y="0" x="224"/>
    <rect id="rect3240" style="stroke:#000000;fill:#ffffff" height="16" width="32" y="16" x="-16"/>
    <rect id="rect3242" style="stroke:#000000;fill:#ffffff" height="16" width="32" y="16" x="16"/>
    <rect id="rect3244" style="stroke:#000000;fill:#ffffff" height="16" width="32" y="16" x="48"/>
    <rect id="rect3246" style="stroke:#000000;fill:#ffffff" height="16" width="32" y="16" x="80"/>
    <rect id="rect3248" style="stroke:#000000;fill:#ffffff" height="16" width="32" y="16" x="112"/>
    <rect id="rect3250" style="stroke:#000000;fill:#ffffff" height="16" width="32" y="16" x="144"/>
    <rect id="rect3252" style="stroke:#000000;fill:#ffffff" height="16" width="32" y="16" x="176"/>
    <rect id="rect3254" style="stroke:#000000;fill:#ffffff" height="16" width="32" y="16" x="208"/>
    <rect id="rect3256" style="stroke:#000000;fill:#ffffff" height="16" width="32" y="16" x="240"/>
    <rect id="rect3258" style="stroke:#000000;fill:#ffffff" height="16" width="32" y="32" x="-.000026703"/>
    <rect id="rect3260" style="stroke:#000000;fill:#ffffff" height="16" width="32" y="32" x="32"/>
    <rect id="rect3262" style="stroke:#000000;fill:#ffffff" height="16" width="32" y="32" x="64"/>
    <rect id="rect3264" style="stroke:#000000;fill:#ffffff" height="16" width="32" y="32" x="96"/>
    <rect id="rect3266" style="stroke:#000000;fill:#ffffff" height="16" width="32" y="32" x="128"/>
    <rect id="rect3268" style="stroke:#000000;fill:#ffffff" height="16" width="32" y="32" x="160"/>
    <rect id="rect3270" style="stroke:#000000;fill:#ffffff" height="16" width="32" y="32" x="192"/>
    <rect id="rect3272" style="stroke:#000000;fill:#ffffff" height="16" width="32" y="32" x="224"/>
    <rect id="rect3276" style="stroke:#000000;fill:#ffffff" height="16" width="32" y="48" x="-16"/>
    <rect id="rect3278" style="stroke:#000000;fill:#ffffff" height="16" width="32" y="48" x="16"/>
    <rect id="rect3280" style="stroke:#000000;fill:#ffffff" height="16" width="32" y="48" x="48"/>
    <rect id="rect3282" style="stroke:#000000;fill:#ffffff" height="16" width="32" y="48" x="80"/>
    <rect id="rect3284" style="stroke:#000000;fill:#ffffff" height="16" width="32" y="48" x="112"/>
    <rect id="rect3286" style="stroke:#000000;fill:#ffffff" height="16" width="32" y="48" x="144"/>
    <rect id="rect3288" style="stroke:#000000;fill:#ffffff" height="16" width="32" y="48" x="176"/>
    <rect id="rect3290" style="stroke:#000000;fill:#ffffff" height="16" width="32" y="48" x="208"/>
    <rect id="rect3292" style="stroke:#000000;fill:#ffffff" height="16" width="32" y="48" x="240"/>
    <rect id="rect3294" style="stroke:#000000;fill:#ffffff" height="16" width="32" y="64" x=".000011444"/>
    <rect id="rect3296" style="stroke:#000000;fill:#ffffff" height="16" width="32" y="64" x="32"/>
    <rect id="rect3298" style="stroke:#000000;fill:#ffffff" height="16" width="32" y="64" x="64"/>
    <rect id="rect3300" style="stroke:#000000;fill:#ffffff" height="16" width="32" y="64" x="96"/>
    <rect id="rect3302" style="stroke:#000000;fill:#ffffff" height="16" width="32" y="64" x="128"/>
    <rect id="rect3304" style="stroke:#000000;fill:#ffffff" height="16" width="32" y="64" x="160"/>
    <rect id="rect3306" style="stroke:#000000;fill:#ffffff" height="16" width="32" y="64" x="192"/>
    <rect id="rect3308" style="stroke:#000000;fill:#ffffff" height="16" width="32" y="64" x="224"/>
    <rect id="rect3310" style="stroke:#000000;fill:#ffffff" height="16" width="32" y="80" x="-16"/>
    <rect id="rect3312" style="stroke:#000000;fill:#ffffff" height="16" width="32" y="80" x="16"/>
    <rect id="rect3314" style="stroke:#000000;fill:#ffffff" height="16" width="32" y="80" x="48"/>
    <rect id="rect3316" style="stroke:#000000;fill:#ffffff" height="16" width="32" y="80" x="80"/>
    <rect id="rect3318" style="stroke:#000000;fill:#ffffff" height="16" width="32" y="80" x="112"/>
    <rect id="rect3320" style="stroke:#000000;fill:#ffffff" height="16" width="32" y="80" x="144"/>
    <rect id="rect3322" style="stroke:#000000;fill:#ffffff" height="16" width="32" y="80" x="176"/>
    <rect id="rect3324" style="stroke:#000000;fill:#ffffff" height="16" width="32" y="80" x="208"/>
    <rect id="rect3326" style="stroke:#000000;fill:#ffffff" height="16" width="32" y="80" x="240"/>
    <rect id="rect3328" style="stroke:#000000;fill:#ffffff" height="16" width="32" y="96" x="-.000019073"/>
    <rect id="rect3330" style="stroke:#000000;fill:#ffffff" height="16" width="32" y="96" x="32"/>
    <rect id="rect3332" style="stroke:#000000;fill:#ffffff" height="16" width="32" y="96" x="64"/>
    <rect id="rect3334" style="stroke:#000000;fill:#ffffff" height="16" width="32" y="96" x="96"/>
    <rect id="rect3336" style="stroke:#000000;fill:#ffffff" height="16" width="32" y="96" x="128"/>
    <rect id="rect3338" style="stroke:#000000;fill:#ffffff" height="16" width="32" y="96" x="160"/>
    <rect id="rect3340" style="stroke:#000000;fill:#ffffff" height="16" width="32" y="96" x="192"/>
    <rect id="rect3342" style="stroke:#000000;fill:#ffffff" height="16" width="32" y="96" x="224"/>
    <rect id="rect3344" style="stroke:#000000;fill:#ffffff" height="16" width="32" y="112" x="-16"/>
    <rect id="rect3346" style="stroke:#000000;fill:#ffffff" height="16" width="32" y="112" x="16"/>
    <rect id="rect3348" style="stroke:#000000;fill:#ffffff" height="16" width="32" y="112" x="48"/>
    <rect id="rect3350" style="stroke:#000000;fill:#ffffff" height="16" width="32" y="112" x="80"/>
    <rect id="rect3352" style="stroke:#000000;fill:#ffffff" height="16" width="32" y="112" x="112"/>
    <rect id="rect3354" style="stroke:#000000;fill:#ffffff" height="16" width="32" y="112" x="144"/>
    <rect id="rect3356" style="stroke:#000000;fill:#ffffff" height="16" width="32" y="112" x="176"/>
    <rect id="rect3358" style="stroke:#000000;fill:#ffffff" height="16" width="32" y="112" x="208"/>
    <rect id="rect3360" style="stroke:#000000;fill:#ffffff" height="16" width="32" y="112" x="240"/>
    <rect id="rect3362" style="stroke:#000000;fill:#ffffff" height="16" width="32" y="128" x=".0000076294"/>
    <rect id="rect3364" style="stroke:#000000;fill:#ffffff" height="16" width="32" y="128" x="32"/>
    <rect id="rect3366" style="stroke:#000000;fill:#ffffff" height="16" width="32" y="128" x="64"/>
    <rect id="rect3368" style="stroke:#000000;fill:#ffffff" height="16" width="32" y="128" x="96"/>
    <rect id="rect3370" style="stroke:#000000;fill:#ffffff" height="16" width="32" y="128" x="128"/>
    <rect id="rect3372" style="stroke:#000000;fill:#ffffff" height="16" width="32" y="128" x="160"/>
    <rect id="rect3374" style="stroke:#000000;fill:#ffffff" height="16" width="32" y="128" x="192"/>
    <rect id="rect3376" style="stroke:#000000;fill:#ffffff" height="16" width="32" y="128" x="224"/>
    <rect id="rect3378" style="stroke:#000000;fill:#ffffff" height="16" width="32" y="144" x="-16"/>
    <rect id="rect3380" style="stroke:#000000;fill:#ffffff" height="16" width="32" y="144" x="16"/>
    <rect id="rect3382" style="stroke:#000000;fill:#ffffff" height="16" width="32" y="144" x="48"/>
    <rect id="rect3384" style="stroke:#000000;fill:#ffffff" height="16" width="32" y="144" x="80"/>
    <rect id="rect3386" style="stroke:#000000;fill:#ffffff" height="16" width="32" y="144" x="112"/>
    <rect id="rect3388" style="stroke:#000000;fill:#ffffff" height="16" width="32" y="144" x="144"/>
    <rect id="rect3390" style="stroke:#000000;fill:#ffffff" height="16" width="32" y="144" x="176"/>
    <rect id="rect3392" style="stroke:#000000;fill:#ffffff" height="16" width="32" y="144" x="208"/>
    <rect id="rect3394" style="stroke:#000000;fill:#ffffff" height="16" width="32" y="144" x="240"/>
    <rect id="rect3396" style="stroke:#000000;fill:#ffffff" height="16" width="32" y="160" x="-.000019073"/>
    <rect id="rect3398" style="stroke:#000000;fill:#ffffff" height="16" width="32" y="160" x="32"/>
    <rect id="rect3400" style="stroke:#000000;fill:#ffffff" height="16" width="32" y="160" x="64"/>
    <rect id="rect3402" style="stroke:#000000;fill:#ffffff" height="16" width="32" y="160" x="96"/>
    <rect id="rect3404" style="stroke:#000000;fill:#ffffff" height="16" width="32" y="160" x="128"/>
    <rect id="rect3406" style="stroke:#000000;fill:#ffffff" height="16" width="32" y="160" x="160"/>
    <rect id="rect3408" style="stroke:#000000;fill:#ffffff" height="16" width="32" y="160" x="192"/>
    <rect id="rect3410" style="stroke:#000000;fill:#ffffff" height="16" width="32" y="160" x="224"/>
    <rect id="rect3412" style="stroke:#000000;fill:#ffffff" height="16" width="32" y="176" x="-16"/>
    <rect id="rect3414" style="stroke:#000000;fill:#ffffff" height="16" width="32" y="176" x="16"/>
    <rect id="rect3416" style="stroke:#000000;fill:#ffffff" height="16" width="32" y="176" x="48"/>
    <rect id="rect3418" style="stroke:#000000;fill:#ffffff" height="16" width="32" y="176" x="80"/>
    <rect id="rect3420" style="stroke:#000000;fill:#ffffff" height="16" width="32" y="176" x="112"/>
    <rect id="rect3422" style="stroke:#000000;fill:#ffffff" height="16" width="32" y="176" x="144"/>
    <rect id="rect3424" style="stroke:#000000;fill:#ffffff" height="16" width="32" y="176" x="176"/>
    <rect id="rect3426" style="stroke:#000000;fill:#ffffff" height="16" width="32" y="176" x="208"/>
    <rect id="rect3428" style="stroke:#000000;fill:#ffffff" height="16" width="32" y="176" x="240"/>
    <rect id="rect3430" style="stroke:#000000;fill:#ffffff" height="16" width="32" y="192" x=".000019073"/>
    <rect id="rect3432" style="stroke:#000000;fill:#ffffff" height="16" width="32" y="192" x="32"/>
    <rect id="rect3434" style="stroke:#000000;fill:#ffffff" height="16" width="32" y="192" x="64"/>
    <rect id="rect3436" style="stroke:#000000;fill:#ffffff" height="16" width="32" y="192" x="96"/>
    <rect id="rect3438" style="stroke:#000000;fill:#ffffff" height="16" width="32" y="192" x="128"/>
    <rect id="rect3440" style="stroke:#000000;fill:#ffffff" height="16" width="32" y="192" x="160"/>
    <rect id="rect3442" style="stroke:#000000;fill:#ffffff" height="16" width="32" y="192" x="192"/>
    <rect id="rect3444" style="stroke:#000000;fill:#ffffff" height="16" width="32" y="192" x="224"/>
    <rect id="rect3446" style="stroke:#000000;fill:#ffffff" height="16" width="32" y="208" x="-16"/>
    <rect id="rect3448" style="stroke:#000000;fill:#ffffff" height="16" width="32" y="208" x="16"/>
    <rect id="rect3450" style="stroke:#000000;fill:#ffffff" height="16" width="32" y="208" x="48"/>
    <rect id="rect3452" style="stroke:#000000;fill:#ffffff" height="16" width="32" y="208" x="80"/>
    <rect id="rect3454" style="stroke:#000000;fill:#ffffff" height="16" width="32" y="208" x="112"/>
    <rect id="rect3456" style="stroke:#000000;fill:#ffffff" height="16" width="32" y="208" x="144"/>
    <rect id="rect3458" style="stroke:#000000;fill:#ffffff" height="16" width="32" y="208" x="176"/>
    <rect id="rect3460" style="stroke:#000000;fill:#ffffff" height="16" width="32" y="208" x="208"/>
    <rect id="rect3462" style="stroke:#000000;fill:#ffffff" height="16" width="32" y="208" x="240"/>
    <rect id="rect3464" style="stroke:#000000;fill:#ffffff" height="16" width="32" y="224" x="-.000011444"/>
    <rect id="rect3466" style="stroke:#000000;fill:#ffffff" height="16" width="32" y="224" x="32"/>
    <rect id="rect3468" style="stroke:#000000;fill:#ffffff" height="16" width="32" y="224" x="64"/>
    <rect id="rect3470" style="stroke:#000000;fill:#ffffff" height="16" width="32" y="224" x="96"/>
    <rect id="rect3472" style="stroke:#000000;fill:#ffffff" height="16" width="32" y="224" x="128"/>
    <rect id="rect3474" style="stroke:#000000;fill:#ffffff" height="16" width="32" y="224" x="160"/>
    <rect id="rect3476" style="stroke:#000000;fill:#ffffff" height="16" width="32" y="224" x="192"/>
    <rect id="rect3478" style="stroke:#000000;fill:#ffffff" height="16" width="32" y="224" x="224"/>
    <rect id="rect3480" style="stroke:#000000;fill:#ffffff" height="16" width="32" y="240" x="-16"/>
    <rect id="rect3482" style="stroke:#000000;fill:#ffffff" height="16" width="32" y="240" x="16"/>
    <rect id="rect3484" style="stroke:#000000;fill:#ffffff" height="16" width="32" y="240" x="48"/>
    <rect id="rect3486" style="stroke:#000000;fill:#ffffff" height="16" width="32" y="240" x="80"/>
    <rect id="rect3488" style="stroke:#000000;fill:#ffffff" height="16" width="32" y="240" x="112"/>
    <rect id="rect3490" style="stroke:#000000;fill:#ffffff" height="16" width="32" y="240" x="144"/>
    <rect id="rect3492" style="stroke:#000000;fill:#ffffff" height="16" width="32" y="240" x="176"/>
    <rect id="rect3494" style="stroke:#000000;fill:#ffffff" height="16" width="32" y="240" x="208"/>
    <rect id="rect3496" style="stroke:#000000;fill:#ffffff" height="16" width="32" y="240" x="240"/>
  </g>
  <metadata>
    <rdf:RDF>
      <cc:Work>
        <dc:format>image/svg+xml</dc:format>
        <dc:type rdf:resource="http://purl.org/dc/dcmitype/StillImage"/>
        <cc:license rdf:resource="http://creativecommons.org/licenses/publicdomain/"/>
        <dc:publisher>
          <cc:Agent rdf:about="http://openclipart.org/">
            <dc:title>Openclipart</dc:title>
          </cc:Agent>
        </dc:publisher>
        <dc:title>bricks white</dc:title>
        <dc:date>2010-11-18T22:43:43</dc:date>
        <dc:description>Nothing much, just a quick drawing of bricks. I chose white bricks with black mortar since it wouldn't take much ink if you were to print it, but retains the feeling of brickness</dc:description>
        <dc:source>https://openclipart.org/detail/96577/bricks-white-by-10binary</dc:source>
        <dc:creator>
          <cc:Agent>
            <dc:title>10binary</dc:title>
          </cc:Agent>
        </dc:creator>
        <dc:subject>
          <rdf:Bag>
            <rdf:li>brick</rdf:li>
            <rdf:li>bricks</rdf:li>
            <rdf:li>white</rdf:li>
          </rdf:Bag>
        </dc:subject>
      </cc:Work>
      <cc:License rdf:about="http://creativecommons.org/licenses/publicdomain/">
        <cc:permits rdf:resource="http://creativecommons.org/ns#Reproduction"/>
        <cc:permits rdf:resource="http://creativecommons.org/ns#Distribution"/>
        <cc:permits rdf:resource="http://creativecommons.org/ns#DerivativeWorks"/>
      </cc:License>
    </rdf:RDF>
  </metadata>
</svg>
